<?xml version="1.0" encoding="UTF-8" standalone="no"?>
<!-- Created with Inkscape (http://www.inkscape.org/) -->

<svg
   version="1.1"
   id="svg2"
   xml:space="preserve"
   width="392.62933"
   height="412.04532"
   viewBox="0 0 392.62933 412.04532"
   sodipodi:docname="логотип желтый дом.ai"
   xmlns:inkscape="http://www.inkscape.org/namespaces/inkscape"
   xmlns:sodipodi="http://sodipodi.sourceforge.net/DTD/sodipodi-0.dtd"
   xmlns="http://www.w3.org/2000/svg"
   xmlns:svg="http://www.w3.org/2000/svg"><defs
     id="defs6"><clipPath
       clipPathUnits="userSpaceOnUse"
       id="clipPath16"><path
         d="M 0,309.034 H 294.472 V 0 H 0 Z"
         id="path14" /></clipPath><clipPath
       clipPathUnits="userSpaceOnUse"
       id="clipPath24"><path
         d="M 58.2746,184.6 H 241.29 V 104.958 H 58.2746 Z"
         id="path22" /></clipPath><clipPath
       clipPathUnits="userSpaceOnUse"
       id="clipPath44"><path
         d="M 0,309.034 H 294.472 V 0 H 0 Z"
         id="path42" /></clipPath><clipPath
       clipPathUnits="userSpaceOnUse"
       id="clipPath56"><path
         d="M 37.9927,285.591 H 261.148 V 33.0677 H 37.9927 Z"
         id="path54" /></clipPath></defs><sodipodi:namedview
     id="namedview4"
     pagecolor="#ffffff"
     bordercolor="#666666"
     borderopacity="1.0"
     inkscape:pageshadow="2"
     inkscape:pageopacity="0.0"
     inkscape:pagecheckerboard="0" /><g
     id="g8"
     inkscape:groupmode="layer"
     inkscape:label="логотип желтый дом"
     transform="matrix(1.3333333,0,0,-1.3333333,0,412.04533)"><g
       id="g10"><g
         id="g12"
         clip-path="url(#clipPath16)"><g
           id="g18"><g
             id="g20" /><g
             id="g32"><g
               clip-path="url(#clipPath24)"
               opacity="0.996613"
               id="g30"><g
                 transform="translate(61.661,108.3438)"
                 id="g28"><path
                   d="M 0,0 62.385,0.156 V 35.613 L 42.969,35.356 85.836,72.87 131.225,36.897 112.817,36.641 112.565,0.411 176.243,0.386"
                   style="fill:none;stroke:#000105;stroke-width:6.773;stroke-linecap:round;stroke-linejoin:round;stroke-miterlimit:4;stroke-dasharray:none;stroke-opacity:1"
                   id="path26" /></g></g></g></g></g></g><g
       id="g34"
       transform="translate(155.997,140.6844)"><path
         d="M 0,0 H 0.766 Z"
         style="fill:#000105;fill-opacity:1;fill-rule:nonzero;stroke:none"
         id="path36" /></g><g
       id="g38"><g
         id="g40"
         clip-path="url(#clipPath44)"><g
           id="g46"
           transform="translate(138.8827,108.3936)"><path
             d="M 0,0 C 0,0 -1.627,28.215 11.155,26.76 23.937,25.306 18.343,-0.706 18.343,-0.706"
             style="fill:#ffd900;fill-opacity:1;fill-rule:nonzero;stroke:#000103;stroke-width:6.773;stroke-linecap:round;stroke-linejoin:round;stroke-miterlimit:4;stroke-dasharray:none;stroke-opacity:1"
             id="path48" /></g><g
           id="g50"><g
             id="g52" /><g
             id="g64"><g
               clip-path="url(#clipPath56)"
               opacity="0.998062"
               id="g62"><g
                 transform="translate(90.7128,203.4966)"
                 id="g60"><path
                   d="M 0,0 C 10.896,3.219 31.452,33.185 19.069,37.395 0.488,43.713 2.062,3.643 17.583,7.429 c 10.154,2.477 11.602,2.906 19.141,16.37 32.669,58.342 3.798,68.195 0,38.571 -3.11,-24.263 0,-54.745 9.02,-51.324 9.516,3.61 28.972,32.546 32.35,44.48 4.665,16.486 -4.355,33.905 -11.821,7.466 -3.717,-13.169 -12.67,-53.585 1.556,-49.457 14.225,4.128 23.018,12.753 21.152,19.596 -1.918,7.028 -14.916,-18.94 -0.312,-23.018 9.382,-2.62 18.664,11.82 18.353,19.907 -0.336,8.723 -8.772,11.413 -13.376,8.71 -4.093,-2.403 3.817,-8.698 10.576,-12.753 9.331,-5.599 24.572,-8.087 23.95,-4.044 -1.874,12.182 -19.907,-8.709 -16.173,-17.419 3.874,-9.04 24.152,-1.865 17.418,2.556 -9.322,6.121 -7.432,-18.267 3.111,-17.424 10.887,0.871 14.626,13.385 14.624,16.802 -0.005,9.575 -14.002,-2.245 1.239,-12.51 0,0 9.049,-6.592 14.007,-22.96 17.122,-56.5 -15.749,-116.402 -72.776,-133.367 -57.028,-16.965 -117.138,15.089 -134.26,71.587 -4.621,15.248 -5.638,30.718 -3.54,45.514 -0.338,1.498 6.912,43.324 27.128,41.573 9.764,-0.846 8.978,-2.014 14.859,0.247 5.995,2.306 7.181,10.402 4.705,17.584 -2.96,8.584 -14.652,19.716 -25.261,40.119 0,0 20.817,-26.174 9.659,-35.166 -11.159,-8.992 -9.078,19.38 -23.28,11.888 C -54.569,23.463 -35.167,0 -25.26,6.687"
                   style="fill:none;stroke:#ffd900;stroke-width:7;stroke-linecap:round;stroke-linejoin:round;stroke-miterlimit:4;stroke-dasharray:none;stroke-opacity:1"
                   id="path58" /></g></g></g></g></g></g></g></svg>
